# xmcd CD database file
#
# Track frame offsets:
#	150
#	14926
#	32609
#	52287
#	69815
#	82397
#	98389
#	113691
#	131978
#	145469
#	157385
#	177487
#	191384
#
# Disc length: 2729 seconds
#
# Revision: 0
# Processed by: cddbd v1.5.1PL0 Copyright (c) Steve Scherf et al.
# Submitted via: CDex 1.51
#
DISCID=c30aa70d
DTITLE=Fossil Ridge - The Road To Fossil Ridge
DYEAR=1900
DGENRE=Country
TTITLE0=The Road To Fossil Ridge
TTITLE1=Happily Forevermore
TTITLE2=Longest MIle
TTITLE3=How Can This Be?
TTITLE4=Coldest Thing In Gunnison
TTITLE5=He Thinks He Is
TTITLE6=Wikd and Crazy
TTITLE7=Loves Scrapbook
TTITLE8=Let's Take A Chance Together
TTITLE9=X-Files
TTITLE10=It's About Time
TTITLE11=So Far Away
TTITLE12=Are You Listening?
EXTD=
EXTT0=
EXTT1=
EXTT2=
EXTT3=
EXTT4=
EXTT5=
EXTT6=
EXTT7=
EXTT8=
EXTT9=
EXTT10=
EXTT11=
EXTT12=
PLAYORDER=
